<svg xmlns="http://www.w3.org/2000/svg"
     xml:lang="en"
     width="4.3in" height="2.8in" viewBox="0 0 400 260" >
    <title>SVG Shapes, Labelled</title>
    <style type="text/css">
        .shape {
            fill: deepSkyBlue;
            stroke: blueViolet;
            stroke-width: 3px;        
        }
        .backdrop {
            fill: lightYellow;
        }
        text {
            font-size: 16px;
            font-family: serif;
        }
        text[role="heading"] { 
            font: bold 36pt sans-serif;        
            text-decoration: underline;          
            fill: darkBlue;        
        }
    </style>
    <rect width="100%" height="100%" class="backdrop" />
    <g>
        <line x1="10" y1="10" x2="90" y2="40" class="shape" />
        <text x="120" y="30" >Line</text>
    </g>
    <g transform="translate(200,0)">
        <rect x="10" y="10" width="80" height="30" rx="5" 
              class="shape" />
        <text x="120" y="30" >Rectangle</text>
    </g>
    <g transform="translate(0,50)">
        <circle cx="50" cy="25" r="20" class="shape" />
        <text x="120" y="30" >Circle</text>
    </g>
    <g transform="translate(200,50)">
        <ellipse cx="50" cy="25" rx="40" ry="20" class="shape" />
        <text x="120" y="30" >Ellipse</text>
    </g>
    <g transform="translate(0,100)">
        <polygon points="10,10 50,40 90,10 50,25" class="shape" />
        <text x="120" y="30" >Polygon</text>
    </g>
    <g transform="translate(200,100)">
        <polyline points="10,10 50,40 90,10 50,25" 
                  class="shape" style="fill: none" />
        <text x="120" y="30" >Polyline</text>
    </g>
    <g transform="translate(100,150)">
        <path d="M10,10 C15,50 85,50 90,10 L50,25 Z" class="shape" />
        <text x="120" y="30" >Path</text>
    </g>
    <text x="10" role="heading"
          transform="translate(0,240)">SVG Shapes</text>
</svg>